<?xml version="1.0" encoding="utf-8"?>
<!-- Generator: Adobe Illustrator 18.0.0, SVG Export Plug-In . SVG Version: 6.00 Build 0)  -->
<!DOCTYPE svg PUBLIC "-//W3C//DTD SVG 1.1//EN" "http://www.w3.org/Graphics/SVG/1.1/DTD/svg11.dtd">
<svg version="1.1" id="Layer_1" xmlns="http://www.w3.org/2000/svg" xmlns:xlink="http://www.w3.org/1999/xlink" x="0px" y="0px"
	 viewBox="0 0 39.9 39" enable-background="new 0 0 39.9 39" xml:space="preserve">
<g id="XMLID_2080_">
	<path id="XMLID_2082_" fill="none" stroke="#fff" stroke-width="1.5" stroke-miterlimit="10" d="M20,38.6L20,38.6
		c-10.5,0-19-8.5-19-19v0C1,9,9.5,0.5,20,0.5h0c10.5,0,19,8.5,19,19v0C39,30,30.5,38.6,20,38.6z"/>
	<path id="XMLID_2081_" fill="#fff" d="M17.1,31h4.6V19.4H25l0.3-3.9h-3.6c0,0,0-1.5,0-2.2c0-0.9,0.2-1.3,1.1-1.3
		c0.7,0,2.5,0,2.5,0V8c0,0-2.6,0-3.2,0c-3.4,0-5,1.5-5,4.4c0,2.5,0,3.1,0,3.1h-2.4v3.9h2.4V31z"/>
</g>
</svg>
