<?xml version="1.0" encoding="utf-8"?>
<!-- Generator: Adobe Illustrator 18.0.0, SVG Export Plug-In . SVG Version: 6.00 Build 0)  -->
<!DOCTYPE svg PUBLIC "-//W3C//DTD SVG 1.1//EN" "http://www.w3.org/Graphics/SVG/1.1/DTD/svg11.dtd">
<svg version="1.1" id="Layer_1" xmlns="http://www.w3.org/2000/svg" xmlns:xlink="http://www.w3.org/1999/xlink" x="0px" y="0px"
	 viewBox="0 0 42.5 42.5" enable-background="new 0 0 42.5 42.5" xml:space="preserve">
<g id="XMLID_2111_">
	<path id="XMLID_2113_" fill="none" stroke="#fff" stroke-width="1.5" stroke-miterlimit="10" d="M22.1,41.6L22.1,41.6
		c-10.5,0-19-8.5-19-19v0c0-10.5,8.5-19,19-19l0,0c10.5,0,19,8.5,19,19v0C41.2,33,32.7,41.6,22.1,41.6z"/>
	<path id="XMLID_2112_" fill="#fff" d="M12,28.9c1.8,1.2,4,1.9,6.4,1.9c7.7,0,12.1-6.5,11.8-12.4c0.8-0.6,1.5-1.3,2.1-2.2
		c-0.7,0.3-1.5,0.6-2.4,0.7c0.9-0.5,1.5-1.3,1.8-2.3c-0.8,0.5-1.7,0.8-2.6,1c-0.8-0.8-1.8-1.3-3-1.3c-2.7,0-4.7,2.5-4.1,5.1
		c-3.5-0.2-6.5-1.8-8.6-4.3c-1.1,1.9-0.6,4.3,1.3,5.6c-0.7,0-1.3-0.2-1.9-0.5c0,1.9,1.3,3.7,3.3,4.1c-0.6,0.2-1.2,0.2-1.9,0.1
		c0.5,1.7,2.1,2.9,3.9,2.9C16.4,28.6,14.2,29.2,12,28.9z"/>
</g>
</svg>
